<svg id="visual" viewBox="0 0 960 540" width="960" height="540" xmlns="http://www.w3.org/2000/svg" xmlns:xlink="http://www.w3.org/1999/xlink" version="1.1"><rect x="0" y="0" width="960" height="540" fill="#001220"></rect><path d="M0 403L22.8 402.2C45.7 401.3 91.3 399.7 137 398.3C182.7 397 228.3 396 274 385.3C319.7 374.7 365.3 354.3 411.2 346.8C457 339.3 503 344.7 548.8 353.5C594.7 362.3 640.3 374.7 686 370.7C731.7 366.7 777.3 346.3 823 348.5C868.7 350.7 914.3 375.3 937.2 387.7L960 400L960 541L937.2 541C914.3 541 868.7 541 823 541C777.3 541 731.7 541 686 541C640.3 541 594.7 541 548.8 541C503 541 457 541 411.2 541C365.3 541 319.7 541 274 541C228.3 541 182.7 541 137 541C91.3 541 45.7 541 22.8 541L0 541Z" fill="#5074a8"></path><path d="M0 363L22.8 368C45.7 373 91.3 383 137 393.8C182.7 404.7 228.3 416.3 274 412C319.7 407.7 365.3 387.3 411.2 376C457 364.7 503 362.3 548.8 360.3C594.7 358.3 640.3 356.7 686 368.3C731.7 380 777.3 405 823 417.8C868.7 430.7 914.3 431.3 937.2 431.7L960 432L960 541L937.2 541C914.3 541 868.7 541 823 541C777.3 541 731.7 541 686 541C640.3 541 594.7 541 548.8 541C503 541 457 541 411.2 541C365.3 541 319.7 541 274 541C228.3 541 182.7 541 137 541C91.3 541 45.7 541 22.8 541L0 541Z" fill="#5e82b6"></path><path d="M0 436L22.8 437.5C45.7 439 91.3 442 137 444C182.7 446 228.3 447 274 449C319.7 451 365.3 454 411.2 446.7C457 439.3 503 421.7 548.8 420.2C594.7 418.7 640.3 433.3 686 441.7C731.7 450 777.3 452 823 445.3C868.7 438.7 914.3 423.3 937.2 415.7L960 408L960 541L937.2 541C914.3 541 868.7 541 823 541C777.3 541 731.7 541 686 541C640.3 541 594.7 541 548.8 541C503 541 457 541 411.2 541C365.3 541 319.7 541 274 541C228.3 541 182.7 541 137 541C91.3 541 45.7 541 22.8 541L0 541Z" fill="#668abf"></path><path d="M0 433L22.8 434.5C45.7 436 91.3 439 137 440C182.7 441 228.3 440 274 442.2C319.7 444.3 365.3 449.7 411.2 451.2C457 452.7 503 450.3 548.8 453.2C594.7 456 640.3 464 686 461.5C731.7 459 777.3 446 823 441.2C868.7 436.3 914.3 439.7 937.2 441.3L960 443L960 541L937.2 541C914.3 541 868.7 541 823 541C777.3 541 731.7 541 686 541C640.3 541 594.7 541 548.8 541C503 541 457 541 411.2 541C365.3 541 319.7 541 274 541C228.3 541 182.7 541 137 541C91.3 541 45.7 541 22.8 541L0 541Z" fill="#5e82b6"></path><path d="M0 507L22.8 502.5C45.7 498 91.3 489 137 487.7C182.7 486.3 228.3 492.7 274 492.3C319.7 492 365.3 485 411.2 483.7C457 482.3 503 486.7 548.8 489C594.7 491.3 640.3 491.7 686 489.8C731.7 488 777.3 484 823 487.5C868.7 491 914.3 502 937.2 507.5L960 513L960 541L937.2 541C914.3 541 868.7 541 823 541C777.3 541 731.7 541 686 541C640.3 541 594.7 541 548.8 541C503 541 457 541 411.2 541C365.3 541 319.7 541 274 541C228.3 541 182.7 541 137 541C91.3 541 45.7 541 22.8 541L0 541Z" fill="#5074a8"></path></svg>