<?xml version="1.0" encoding="UTF-8"?>
<svg id="Layer_2" data-name="Layer 2" xmlns="http://www.w3.org/2000/svg" viewBox="0 0 278.8 320.31">
  <defs>
    <style>
      .cls-1 {
        stroke-width: 5px;
      }

      .cls-1, .cls-2 {
        fill: none;
        stroke: #f15a24;
      }

      .cls-2 {
        stroke-width: 4px;
      }

      .cls-3 {
        fill: #fff;
      }

      .cls-4 {
        fill: #ce5300;
      }

      .cls-5 {
        fill: #894010;
      }

      .cls-6 {
        fill: #ff9f69;
      }
    </style>
  </defs>
  <g id="Layer_3" data-name="Layer 3">
    <g>
      <path class="cls-4" d="M278.77,148.88c-.05-.76-.16-1.5-.32-2.21.07-.74.09-1.5.04-2.28l-4.48-69.86c0-.08-.02-.17-.03-.25,0-.08,0-.17,0-.25-.39-6.04-4.61-10.73-9.39-10.42-15.19.97-30.38,1.95-45.56,2.92-3.63.23-9.52,1.82-13.11.8-1.54-.44-3.52-1.72-5.3-3.05l-1.27-27.5c-.41-8.95-8-15.86-16.94-15.45l-120.44,5.55c-8.95.41-15.86,8-15.45,16.94l8.08,175.38c.41,8.95,8,15.86,16.94,15.45l120.44-5.55c8.95-.41,15.86-8,15.45-16.94l-1.82-39.42c.22-.65.48-1.3.78-1.95,1.04-2.22,2.91-4.87,5.07-6.13,3.21-1.87,9.04-1.03,12.69-1.26,15.55-1,31.09-1.99,46.64-2.99,4.78-.31,8.37-5.5,7.98-11.53ZM244.83,143.14l-25.96,1.66c-6.59.3-12.24-4.84-12.54-11.43l-1.66-35.96c-.3-6.59,4.84-12.24,11.43-12.54l25.96-1.66c6.59-.3,12.24,4.84,12.54,11.43l1.66,35.96c.3,6.59-4.84,12.24-11.43,12.54Z"/>
      <rect class="cls-5" x="68.47" y="77" width="8" height="120" rx="4" ry="4" transform="translate(-6.04 3.37) rotate(-2.56)"/>
      <rect class="cls-5" x="170.16" y="112.01" width="8" height="88.97" rx="4" ry="4" transform="translate(-6.81 7.93) rotate(-2.56)"/>
      <rect class="cls-5" x="119.56" y="70.03" width="8" height="62.07" rx="4" ry="4" transform="translate(-4.39 5.62) rotate(-2.56)"/>
      <circle class="cls-6" cx="61.97" cy="29.5" r="17.5"/>
      <circle class="cls-6" cx="54.97" cy="41.5" r="17.5"/>
      <circle class="cls-6" cx="84.97" cy="27.5" r="14.5"/>
      <circle class="cls-6" cx="99.47" cy="22" r="16"/>
      <circle class="cls-6" cx="101.97" cy="37.5" r="6.5"/>
      <circle class="cls-6" cx="101.97" cy="47.5" r="6.5"/>
      <circle class="cls-6" cx="101.97" cy="52.5" r="6.5"/>
      <circle class="cls-6" cx="101.97" cy="55.5" r="6.5"/>
      <circle class="cls-6" cx="120.47" cy="22" r="16"/>
      <circle class="cls-6" cx="139.97" cy="24.5" r="16.5"/>
      <circle class="cls-6" cx="154.97" cy="33.5" r="11.5"/>
      <circle class="cls-6" cx="148.47" cy="18" r="18"/>
      <circle class="cls-6" cx="170.97" cy="21.5" r="13.5"/>
      <circle class="cls-6" cx="175.47" cy="29" r="19"/>
      <circle class="cls-6" cx="184.47" cy="24" r="19"/>
      <circle class="cls-6" cx="176.47" cy="14" r="14"/>
      <path class="cls-3" d="M265.74,90.15c1.07,12.39,2.13,24.78,3.2,37.18.16,1.91,3.17,1.93,3,0-1.07-12.39-2.13-24.78-3.2-37.18-.16-1.91-3.17-1.93-3,0h0Z"/>
    </g>
    <g>
      <g>
        <path d="M30.04,232.65c-4.26,2.42-8.75,3.57-13.46,3.57-9.44,0-16.57-4.83-16.57-11.16,0-4.95,4.49-8.29,10.47-8.29,7.02,0,12.66,4.72,19.56,8.52,5.29-3.91,10.13-10.47,14.62-20.37l7.6-16.46c3.91-8.4,9.78-16.69,17.26-17.61-4.95-8.98-15.77-15.08-28.77-15.08-18.3,0-33.37,12.66-33.37,28.08,0,12.54,8.29,17.15,14.5,17.15,5.18,0,10.93-2.99,10.93-9.32,0-2.07-.58-3.45-.92-4.03-1.96-3.8,3.8-6.1,6.1-2.65.81,1.27,1.27,3.45,1.27,5.87,0,10.7-9.21,16.23-17.72,16.23-10.13,0-20.6-8.17-20.6-23.36,0-18.64,18.07-34.18,39.59-34.18s38.09,14.73,38.09,32.11c0,9.32-5.75,18.3-14.96,21.4,3.68,3.22,5.75,7.94,5.75,12.78,0,11.05-10.82,20.37-23.59,20.37-6.22,0-11.39-1.61-15.77-3.57ZM16.69,229.66c2.19,0,4.37-.34,6.44-.92-4.83-2.88-8.86-5.64-12.89-5.64-2.3,0-3.8.92-3.8,2.42,0,2.3,4.6,4.14,10.24,4.14ZM36.25,228.16c2.99,1.04,6.33,1.73,10.13,1.73,8.86,0,16.34-6.67,16.34-14.5,0-5.87-4.37-10.36-10.59-11.05l-1.38,2.99c-4.26,9.09-9.09,16-14.5,20.83ZM54.9,198.35c.69.12,1.38.12,2.07.12,8.52,0,15.19-8.52,15.19-16.92,0-1.61-.11-3.22-.46-4.72-6.21,1.38-10.01,7.13-13.12,13.69l-3.68,7.83Z"/>
        <path d="M107.94,214.58c1.96-4.26,7.94-2.99,6.1,1.27-2.65,5.75-7.83,15.19-16.92,15.19-4.83,0-8.86-2.76-8.86-8.17,0-2.19.69-4.95,1.73-7.14l6.33-13.69c.58-1.38,1.15-2.88,1.15-3.8,0-3.11-3.91-3.57-5.41-5.41l-11.62,25.2c-1.61,3.45-3.11,7.02-3.11,11.51,0,3.68,1.73,7.48,6.33,8.52,4.37,1.03,2.88,7.37-1.73,6.33-7.37-1.61-10.93-8.06-10.93-14.62,0-5.53,2.53-11.28,3.68-13.7l16.57-35.68c1.84-3.91,8.4-2.99,5.52,2.42-5.18,9.78,7.25,4.72,7.25,14.62,0,1.73-1.15,5.18-1.84,6.68l-6.56,14.15c-.58,1.15-1.04,2.65-1.04,3.91,0,1.61.81,2.76,2.99,2.76,4.83,0,7.94-5.29,10.36-10.36Z"/>
        <path d="M113.46,219.07c0,2.99,3.68,5.99,8.52,5.99,7.94,0,12.77-5.75,14.96-10.47,1.84-4.14,7.94-2.88,6.1,1.27-4.6,10.13-12.08,15.19-21.29,15.19-7.83,0-14.73-3.8-14.73-11.16,0-2.3.81-5.64,2.53-9.09l4.6-9.67c1.84-3.68,5.41-11.39,13.93-11.39,6.21,0,8.75,3.8,8.75,8.29,0,1.96-.58,4.14-1.15,5.64-2.88,7.48-7.71,10.7-13.12,10.7-2.42,0-4.95-1.38-6.1-2.42-.35-.23-.58.12-.69.46l-1.15,2.53c-.81,1.73-1.15,3.22-1.15,4.14ZM122.32,208.25c2.65,0,4.95-1.96,6.79-5.52.58-1.15,1.15-2.76,1.15-4.26,0-1.73-.81-2.99-3.11-2.99-2.99,0-5.06,2.88-6.79,6.56l-1.5,3.22c-.23.58-.46,1.38.23,1.84,1.04.69,2.07,1.15,3.22,1.15Z"/>
        <path d="M171.46,215.73l2.53-5.29c1.73-3.57,3.45-10.13,3.45-14.96,0-.81,0-1.61-.23-2.53-.92-3.57,4.83-4.49,5.75-.69.34,1.38.46,2.76.46,4.37,0,5.98-1.73,12.08-3.68,16l-2.99,6.33c-2.53,5.41-7.25,12.08-15.77,12.08-3.22,0-6.1-1.38-7.6-3.8-.11-.23-.23-.46-.34-.69-2.65,2.3-6.22,4.49-10.36,4.49-4.72,0-8.17-2.88-8.17-8.29,0-2.88,1.04-5.18,2.42-8.17l9.44-20.6c1.84-3.91,8.17-3.11,5.64,2.42l-8.98,19.56c-1.84,3.91-2.3,5.41-2.3,6.56,0,1.61,1.15,2.53,2.88,2.53,4.37,0,8.4-5.18,10.01-8.75l10.24-22.33c1.84-3.91,8.06-3.11,5.52,2.42l-9.78,21.52c-.81,1.73-1.27,3.45-1.27,4.49,0,1.73,1.15,2.65,2.99,2.65,5.06,0,8.06-5.06,10.13-9.32Z"/>
        <path d="M214.73,182.01c0-12.2,10.01-21.29,21.41-21.29,10.59,0,16.92,7.48,16.92,15.31,0,7.02-5.52,12.77-12.2,12.77-2.53,0-5.75-1.38-7.48-3.22-3.57-3.8,1.04-7.83,3.8-4.6,1.15,1.38,2.42,2.07,3.68,2.07,3.57,0,6.45-3.22,6.45-7.02,0-4.95-4.03-9.67-11.16-9.67-8.52,0-15.88,7.02-15.88,16.46,0,4.26,1.61,7.94,5.64,9.67.46.23.81.34,1.27.46,4.03,1.27,1.61,7.48-2.19,5.75-2.07-.92-4.49-1.38-6.44-1.38-8.98,0-19.33,7.02-19.33,17.84,0,9.21,7.37,15.08,16,15.08s14.62-5.41,14.62-11.85c0-4.26-2.53-8.17-7.14-8.17-2.76,0-5.29,1.61-5.29,4.72,0,.81.11,1.27.34,1.73,1.73,2.65-3.45,5.06-5.29,2.07-.58-.81-1.15-2.65-1.15-4.26,0-7.59,7.25-11.85,14.04-11.85s13.35,3.34,18.87,3.34c2.3,0,5.06-1.27,5.06-4.49,0-1.38-.35-2.19-.92-2.88-1.84-2.42,2.65-4.95,4.95-2.53,1.15,1.27,2.19,3.34,2.19,5.75,0,5.98-5.29,10.13-11.28,10.13-3.22,0-7.25-1.61-11.05-2.99-5.41-1.96-5.64-1.84-5.64-1.61,0,.46,1.38.23,4.49,2.53,2.65,1.96,3.8,5.75,3.8,8.98,0,9.09-8.52,17.38-20.83,17.38s-21.75-8.06-21.75-20.71,9.78-21.64,22.21-23.36c1.38-.23,1.84-1.04,1.15-2.3-1.04-2.07-1.84-4.72-1.84-7.83Z"/>
      </g>
      <g>
        <path class="cls-2" d="M179.87,187.8c-1.56,0-3.01.67-3.88,1.8-.82,1.06-1.08,2.43-.72,3.83.17.68.17,1.32.17,2.05,0,4.55-1.69,10.86-3.26,14.1l-2.53,5.28c-1.97,4.05-4.51,8.2-8.33,8.2-.99,0-.99-.29-.99-.65,0-.64.34-2.06,1.09-3.66l9.78-21.51c1.29-2.81.75-4.66.08-5.71-.81-1.25-2.19-1.97-3.81-1.97-2.27,0-4.4,1.41-5.43,3.6l-10.25,22.34c-1.38,3.05-4.93,7.57-8.19,7.57-.88,0-.88-.28-.88-.53,0-.88.59-2.48,2.12-5.72l8.98-19.57c1.28-2.79.74-4.63.07-5.68-.82-1.27-2.23-2-3.87-2-2.29,0-4.44,1.41-5.47,3.6l-9.43,20.6s-.02.05-.04.08c-1.33,2.84-5.21,9.23-13.11,9.23-3.98,0-6.52-2.36-6.52-3.99,0-.57.25-1.77.97-3.31l.48-1.05c1.59.92,3.65,1.65,5.64,1.65,6.69,0,12.01-4.26,14.99-11.99.3-.78,1.28-3.56,1.28-6.36,0-6.34-4.12-10.29-10.75-10.29-9.49,0-13.58,8.21-15.54,12.15l-.19.38-4.59,9.63c-.61,1.22-1.12,2.46-1.54,3.68-.02.05-.06.1-.08.15-2.18,4.56-4.89,9.22-8.55,9.22-.99,0-.99-.18-.99-.76,0-.83.32-2.02.85-3.07l6.56-14.16c.71-1.53,2.03-5.31,2.03-7.51,0-5.94-3.79-7.76-6.3-8.96-.99-.47-2.01-.96-2.17-1.44-.07-.2-.2-1.04.98-3.27,1.53-2.88.87-4.79.34-5.67-.79-1.31-2.26-2.09-3.96-2.09-2.32,0-4.47,1.39-5.49,3.56l-16.56,35.66c-.75,1.57-1.38,3.12-1.92,4.63.28-1.3.44-2.64.44-4,0-4.44-1.53-8.7-4.29-12.06,8.07-4.02,13.49-12.71,13.49-22.12,0-18.81-17.99-34.11-40.09-34.11S-1.08,164.13-1.08,183.74c0,9.59,3.85,15.5,7.08,18.78,4.12,4.18,9.78,6.58,15.52,6.58,9.56,0,19.72-6.39,19.72-18.23,0-2.83-.58-5.37-1.6-6.98-1.09-1.64-2.85-2.58-4.81-2.58s-3.76.95-4.7,2.48c-.86,1.41-.87,3.15-.04,4.77l.06.11c.07.11.64,1.12.64,3,0,5.79-5.84,7.32-8.93,7.32-4.64,0-12.5-3.19-12.5-15.15,0-14.38,14.07-26.08,31.37-26.08,10.82,0,20.37,4.46,25.6,11.79-7.32,2.59-12.62,11.01-15.91,18.06l-7.6,16.47c-3.97,8.75-8.22,14.92-12.97,18.8-1.17-.67-2.32-1.37-3.44-2.05-5.14-3.12-10-6.07-15.94-6.07-7.23,0-12.47,4.33-12.47,10.29,0,7.5,7.98,13.16,18.57,13.16,4.78,0,9.33-1.12,13.56-3.34,5.36,2.28,10.36,3.34,15.67,3.34,10.97,0,20.58-6.4,24.13-15.08-.61,2.37-.94,4.6-.94,6.63,0,8.4,4.91,14.91,12.49,16.57.48.11.96.16,1.42.16,2.76,0,5-1.99,5.31-4.72.31-2.69-1.38-5.02-4.13-5.67-4.3-.97-4.77-4.92-4.77-6.57,0-4.07,1.38-7.36,2.92-10.67l10.58-22.95c.17.1.34.2.51.29,1.62.92,2.13,1.32,2.13,2.03,0,.29-.17,1.05-.97,2.96l-6.32,13.68c-1.18,2.5-1.92,5.56-1.92,7.99,0,6.08,4.37,10.17,10.86,10.17,4.66,0,8.36-2.13,11.22-4.9,2.95,3.06,7.66,4.9,13.4,4.9,4.79,0,9.08-1.25,12.8-3.66,1.76,2.32,4.59,3.66,8.14,3.66,3.33,0,6.64-1.19,9.88-3.55,1.96,2.25,5,3.55,8.42,3.55,7.45,0,13.52-4.58,17.57-13.23l2.97-6.29c1.88-3.77,3.89-10.18,3.89-16.89,0-1.92-.16-3.42-.52-4.85-.58-2.38-2.6-3.98-5.04-3.98ZM122.18,202.88c1.73-3.69,3.31-5.41,4.98-5.41,1.06,0,1.11.22,1.11.99,0,.93-.35,2.19-.93,3.34-1.05,2.03-2.76,4.44-5.01,4.44-.46,0-.94-.14-1.5-.44l1.36-2.92ZM16.69,227.66c-5.19,0-8.01-1.58-8.25-2.13.06-.09.57-.43,1.81-.43,2.18,0,4.54,1.07,7.15,2.55-.24,0-.47.01-.7.01ZM46.38,227.89c-2.13,0-4.19-.23-6.26-.69,4.6-4.82,8.78-11.2,12.44-19.02l.74-1.61c4.49,1.02,7.41,4.43,7.41,8.83,0,6.78-6.57,12.5-14.34,12.5ZM58.02,196.42l2.37-5.03c2.28-4.82,5.2-9.87,9.69-11.91.05.64.08,1.33.08,2.08,0,6.71-5.12,14.18-12.14,14.87Z"/>
        <path class="cls-2" d="M254.73,194.67c-.98-1.03-2.32-1.6-3.76-1.6-2,0-3.88,1.08-4.67,2.68-.65,1.31-.48,2.82.5,4.11.24.29.46.63.46,1.59,0,2.37-2.55,2.49-3.06,2.49-2.37,0-5.13-.72-8.05-1.49-2.7-.71-5.48-1.43-8.34-1.72,1.73-.6,3.06-2.21,3.37-4.25.38-2.5-.99-4.7-3.42-5.46l-.11-.03c-.37-.09-.57-.16-.86-.31l-.11-.05c-2.94-1.26-4.43-3.89-4.43-7.83,0-7.97,6.23-14.46,13.88-14.46,6.02,0,9.16,3.86,9.16,7.67,0,2.72-2.04,5.02-4.45,5.02-.84,0-1.63-.74-2.16-1.38-1.04-1.21-2.4-1.87-3.83-1.87-1.89,0-3.61,1.15-4.38,2.92-.87,2.01-.33,4.34,1.44,6.23,2.09,2.23,5.85,3.85,8.94,3.85,7.83,0,14.2-6.63,14.2-14.77s-6.63-17.31-18.92-17.31c-12.91,0-23.41,10.45-23.41,23.29,0,2.86.6,5.62,1.82,8.24-13.99,2.18-23.34,12.27-23.34,25.25s9.99,22.71,23.75,22.71c12.8,0,22.83-8.51,22.83-19.38,0-2.03-.41-4.45-1.44-6.61,2.71.94,5.41,1.7,7.84,1.7,7.45,0,13.28-5.33,13.28-12.13,0-2.62-.99-5.21-2.74-7.13ZM215.19,228.23c-6.96,0-14-4.49-14-13.08,0-9.33,9.14-15.84,17.33-15.84,1.82,0,3.93.45,5.62,1.2.09.04.18.08.27.12-7.59.38-15.14,5.49-15.14,13.83,0,1.88.62,4.12,1.48,5.36.92,1.45,2.44,2.28,4.2,2.28,1.95,0,3.81-1.03,4.65-2.57.67-1.23.62-2.62-.13-3.85-.05-.12-.1-.3-.1-.76,0-2.59,2.74-2.72,3.29-2.72,3.55,0,5.14,3.1,5.14,6.17,0,5.43-5.66,9.85-12.62,9.85Z"/>
      </g>
    </g>
    <g>
      <g>
        <path d="M64.04,316.74c-4.26,2.42-8.75,3.57-13.46,3.57-9.44,0-16.57-4.83-16.57-11.16,0-4.95,4.49-8.29,10.47-8.29,7.02,0,12.66,4.72,19.56,8.52,5.29-3.91,10.13-10.47,14.62-20.37l7.6-16.46c3.91-8.4,9.78-16.69,17.26-17.61-4.95-8.98-15.77-15.08-28.77-15.08-18.3,0-33.37,12.66-33.37,28.08,0,12.54,8.29,17.15,14.5,17.15,5.18,0,10.93-2.99,10.93-9.32,0-2.07-.58-3.45-.92-4.03-1.96-3.8,3.8-6.1,6.1-2.65.81,1.27,1.27,3.45,1.27,5.87,0,10.7-9.21,16.23-17.72,16.23-10.13,0-20.6-8.17-20.6-23.36,0-18.64,18.07-34.18,39.59-34.18s38.09,14.73,38.09,32.11c0,9.32-5.75,18.3-14.96,21.4,3.68,3.22,5.75,7.94,5.75,12.78,0,11.05-10.82,20.37-23.59,20.37-6.22,0-11.39-1.61-15.77-3.57ZM50.69,313.75c2.19,0,4.37-.34,6.44-.92-4.83-2.88-8.86-5.64-12.89-5.64-2.3,0-3.8.92-3.8,2.42,0,2.3,4.6,4.14,10.24,4.14ZM70.25,312.25c2.99,1.04,6.33,1.73,10.13,1.73,8.86,0,16.34-6.67,16.34-14.5,0-5.87-4.37-10.36-10.59-11.05l-1.38,2.99c-4.26,9.09-9.09,16-14.5,20.83ZM88.9,282.44c.69.12,1.38.12,2.07.12,8.52,0,15.19-8.52,15.19-16.92,0-1.61-.11-3.22-.46-4.72-6.21,1.38-10.01,7.13-13.12,13.69l-3.68,7.83Z"/>
        <path d="M130.89,273.81c3.11,0,5.41.92,6.9,2.3,1.61,1.5,4.83,2.99,8.63,2.99,2.3,0,4.95-.81,5.98-2.3h.46l-2.99,6.79c-1.04.46-3.68,1.03-5.41,1.03-1.61,0-3.11-.34-4.37-.92-.11,1.84-.69,3.68-1.5,5.41l-6.79,14.85c-3.57,7.83-8.75,11.16-15.31,11.16s-9.32-4.03-9.32-8.75c0-2.53.81-4.72,2.19-7.71l6.21-13.7c3.22-7.02,8.86-11.16,15.31-11.16ZM129.97,279.8c-3.34,0-6.1,2.65-8.86,8.4l-6.1,13.12c-.69,1.38-1.15,2.99-1.15,4.49,0,1.84.81,3.34,3.57,3.34,3.45,0,6.21-2.88,8.86-8.4l6.1-13.12c1.38-2.99,2.53-7.83-2.42-7.83Z"/>
        <path d="M155.29,274.96c1.73,0,2.53,1.03,1.84,2.65l-.58,1.38h.23c1.84-2.65,4.95-5.18,9.09-5.18s7.48,3.22,7.48,7.6c0,2.07-.81,5.29-1.96,7.71l-6.1,13.23c-.81,1.73-1.15,3.22-1.15,4.14,0,1.84,1.38,2.53,3.22,2.53,4.83,0,7.94-5.29,10.36-10.36,1.96-4.26,7.94-2.99,6.1,1.27-2.65,5.75-7.83,15.19-16.92,15.19-4.95,0-8.98-2.65-8.98-8.06,0-2.3.69-5.06,1.73-7.25l6.22-13.46c.81-1.61,1.04-2.99,1.04-3.91,0-1.61-1.15-2.65-3.11-2.65-4.03,0-8.06,4.03-9.78,7.83l-5.52,12.31-5.18,11.39c-2.53,5.64-8.29,3.34-5.98-1.61l5.06-11.05,10.01-21.87c.58-1.15,1.61-1.84,2.88-1.84Z"/>
        <path d="M175.54,307.07c0-2.88,1.15-6.21,2.19-8.4l5.64-12.31c1.61-3.57,6.44-12.54,14.96-12.54,2.76,0,6.44,1.84,6.9,4.95l16.34-35.79c1.73-3.91,8.06-3.11,5.52,2.42l-26.24,56.97c-.81,1.73-1.15,3.22-1.15,4.14,0,1.84,1.27,2.53,3.11,2.53,4.83,0,7.94-5.29,10.36-10.36,1.96-4.26,7.94-2.99,6.1,1.27-2.65,5.75-7.83,15.19-16.92,15.19-3.45,0-6.79-1.27-8.17-4.6-2.07,2.76-5.29,4.6-9.44,4.6-5.18,0-9.21-2.88-9.21-8.06ZM194.41,301.32l6.56-13.93c.69-1.61,1.15-2.99,1.15-4.14,0-2.19-1.27-3.45-3.8-3.45-5.29,0-8.17,7.14-9.44,9.78l-5.98,13c-.58,1.15-.81,2.3-.81,3.45,0,1.73.81,3.11,3.22,3.11,4.6,0,7.83-5.06,9.09-7.83Z"/>
        <path d="M215.47,307.99c.92.69,2.65,1.15,3.57,1.15,4.95,0,8.75-4.37,8.75-8.86,0-2.99-1.84-8.06-2.53-10.59-.23-.69-.34-1.27-.58-1.27-.11,0-.23.12-.81,1.27-1.04,2.07-3.34,7.37-4.6,10.24-1.96,4.14-7.94,2.88-6.1-1.27l2.76-6.1c6.56-14.5,10.47-18.99,18.07-18.99,2.42,0,4.14.81,4.95,1.5,2.99,2.65-.81,7.02-3.22,5.18-.58-.46-1.5-.81-2.3-.81-2.42,0-4.26,2.07-4.26,4.26,0,4.37,4.83,9.21,4.83,16.11,0,7.6-5.41,15.31-15.31,15.31-1.38,0-4.6-.23-6.33-1.5-3.91-2.53-.12-7.83,3.11-5.64Z"/>
      </g>
      <g>
        <path class="cls-1" d="M101.11,287.88c8.07-4.02,13.49-12.71,13.49-22.12,0-18.81-17.99-34.11-40.09-34.11s-41.59,16.57-41.59,36.18c0,9.59,3.85,15.5,7.08,18.78,4.12,4.18,9.78,6.58,15.52,6.58,9.56,0,19.72-6.39,19.72-18.23,0-2.84-.58-5.37-1.6-6.98-1.09-1.64-2.85-2.58-4.81-2.58s-3.76.95-4.7,2.48c-.86,1.41-.87,3.15-.04,4.77l.06.11c.07.11.64,1.12.64,3,0,5.79-5.84,7.32-8.93,7.32-4.64,0-12.5-3.19-12.5-15.15,0-14.38,14.07-26.08,31.37-26.08,10.82,0,20.37,4.46,25.6,11.79-7.32,2.59-12.62,11.01-15.91,18.06l-7.6,16.47c-3.97,8.75-8.22,14.92-12.97,18.8-1.17-.67-2.32-1.37-3.44-2.05-5.14-3.12-10-6.07-15.94-6.07-7.23,0-12.47,4.33-12.47,10.29,0,7.5,7.98,13.16,18.57,13.16,4.78,0,9.34-1.12,13.56-3.34,5.35,2.28,10.36,3.34,15.67,3.34,13.87,0,25.59-10.24,25.59-22.37,0-4.44-1.53-8.7-4.29-12.06ZM50.69,311.75c-5.19,0-8.01-1.58-8.25-2.13.06-.09.57-.43,1.81-.43,2.18,0,4.54,1.07,7.15,2.55-.24,0-.47.01-.7.01ZM80.38,311.98c-2.13,0-4.19-.23-6.26-.69,4.6-4.82,8.78-11.2,12.44-19.02l.74-1.61c4.49,1.02,7.41,4.43,7.41,8.83,0,6.78-6.57,12.5-14.34,12.5ZM92.02,280.51l2.37-5.03c2.28-4.82,5.2-9.87,9.69-11.91.05.64.08,1.33.08,2.08,0,6.71-5.12,14.18-12.14,14.87Z"/>
        <path class="cls-1" d="M240.25,273.56c-1.44-1.24-3.78-1.98-6.25-1.98-9.21,0-13.58,6.22-19.89,20.16l-2.77,6.11s0,0,0,.02c-2.17,4.54-4.88,9.15-8.52,9.15-.7,0-1.01-.14-1.06-.18,0,0-.05-.09-.05-.35,0-.57.25-1.78.97-3.31l26.24-56.97c1.28-2.79.74-4.64.07-5.69-.81-1.27-2.22-1.99-3.85-1.99-2.3,0-4.42,1.42-5.38,3.6l-14.75,32.3c-1.79-1.68-4.36-2.62-6.68-2.62-9.56,0-14.92,9.6-16.78,13.71l-5.63,12.29c-.03.07-.07.14-.11.23-2.16,4.48-4.84,8.98-8.44,8.98-.81,0-1.14-.19-1.18-.23,0,0-.04-.07-.04-.3,0-.57.25-1.78.97-3.31l6.09-13.21c1.27-2.66,2.15-6.18,2.15-8.57,0-5.47-4.08-9.6-9.48-9.6-2.62,0-5.14.87-7.31,2.48-.73-.86-1.88-1.33-3.28-1.33-1.89,0-3.54.99-4.52,2.7-.48.69-2.27,1.44-4.34,1.44-3.19,0-5.95-1.23-7.27-2.46-1.4-1.29-3.97-2.83-8.26-2.83-7.18,0-13.58,4.61-17.13,12.34l-6.21,13.68c-1.5,3.25-2.37,5.69-2.37,8.55,0,6.53,4.44,10.75,11.32,10.75,7.63,0,13.4-4.15,17.13-12.33l6.78-14.83c.58-1.24,1.01-2.45,1.29-3.63.9.2,1.83.3,2.76.3.39,0,.83-.03,1.27-.07l-10.22,22.32c-.97,2.08-.95,4.15.03,5.7.82,1.28,2.23,2.05,3.79,2.05,2.37,0,4.54-1.67,5.8-4.47l5.18-11.4,5.52-12.3c1.46-3.2,4.91-6.65,7.96-6.65,1.11,0,1.11.41,1.11.65,0,.41-.08,1.53-.85,3.08l-6.21,13.45c-1.2,2.54-1.92,5.57-1.92,8.11,0,6.02,4.41,10.06,10.98,10.06,3.66,0,6.72-1.32,9.26-3.23,1.97,2.04,4.95,3.23,8.57,3.23s6.68-1.17,9.14-3.34c1.9,2.15,4.85,3.34,8.47,3.34,3.13,0,5.82-.96,8.12-2.43.23.21.48.4.75.58,2.39,1.72,6.31,1.85,7.46,1.85,11.24,0,17.31-8.92,17.31-17.31,0-4.29-1.67-7.86-3.02-10.73-.98-2.08-1.82-3.88-1.82-5.38,0-1.07.93-2.26,2.26-2.26.35,0,.83.19,1.09.4.73.56,1.59.85,2.49.85h0c1.99,0,3.92-1.44,4.7-3.5.77-2.04.24-4.14-1.46-5.63ZM130.58,286.78l-6.09,13.1c-3.12,6.51-5.52,7.27-7.06,7.27s-1.57-.43-1.57-1.34c0-1.09.34-2.4.96-3.64l6.09-13.1c3.13-6.51,5.53-7.27,7.06-7.27.35,0,1.19.04,1.43.41.37.58.21,2.34-.82,4.58ZM199.16,286.54l-6.57,13.95c-1.41,3.07-4.16,6.66-7.27,6.66-1.12,0-1.22-.29-1.22-1.11,0-.92.19-1.76.62-2.62l5.97-12.98.33-.7c1.2-2.58,3.69-7.94,7.3-7.94,1.67,0,1.8.6,1.8,1.45,0,.94-.56,2.37-.96,3.29ZM219.04,307.14c-.29,0-.75-.09-1.21-.24,1.57-2.47,2.64-4.79,3.28-6.18,0-.01,0-.02.01-.03l.58-1.33c.79-1.81,1.77-4.03,2.6-5.88.7,2.31,1.48,5.08,1.48,6.79,0,3.25-2.77,6.86-6.75,6.86Z"/>
      </g>
    </g>
  </g>
</svg>