<?xml version="1.0" encoding="UTF-8"?>
<svg id="Layer_2" data-name="Layer 2" xmlns="http://www.w3.org/2000/svg" viewBox="0 0 1145.43 423.7">
  <defs>
    <style>
      .cls-1 {
        fill: #6689bf;
      }

      .cls-2 {
        fill: #516aa3;
      }

      .cls-3 {
        fill: #5074a8;
      }
    </style>
  </defs>
  <g id="wavy">
    <path class="cls-1" d="M0,159.26c38.91-9.89,75.6-25.74,104.89-48.49,21.12-16.37,37.45-36.2,56.99-53.6C202.37,19.14,264.18,3.76,324.06,4.46c56.81.45,116.19,8.55,159.43,37.03,20.53,12.71,39.99,26.81,63.24,36.55,49.77,20.33,119.17,30.23,175.03,15.74,37.95-9.4,63.22-30.91,89.1-53.94,34.7-31.45,77.7-48.45,128.25-35.43l.2.05c56,14.97,87.96,58.05,140.17,78.14,19.53,7.88,38.2,14.02,55.08,21.89.02,5.39-.13,10.81-.56,16.27-7.12,73.3-1.4,143.31,1.45,214.23-1.17.16-2.35.31-3.54.45-375.24,14.01-750.72,22.43-1126.06,33.54C1.68,299.08,2.36,229.34,0,159.26Z"/>
    <path class="cls-3" d="M.4,176.65c37.01-3.86,72.32-11.88,103.54-30.48,34.5-20.55,58.71-51.55,91.07-74.57,53.9-38.33,130.41-51.36,194.6-33.16,66.95,18.99,115.88,67.5,180.63,90.99,69.56,25.24,155.35,18.12,221.17-18.34,25.71-14.25,48.26-32.48,74.03-46.65,25.77-14.17,56.61-24.28,85.78-19.32,43.29,7.35,68.08,43.72,98.66,70.18,25.14,21.75,51.75,33.15,80.81,40.81-1.73,61.49,2.41,121.39,4.82,181.88-350.16,21.72-700.31,43.45-1050.47,65.17-25.57,1.59-51.15,3.17-76.72,4.46C2.2,330.54,2.29,253.75.4,176.65Z"/>
    <path class="cls-2" d="M6.22,202.31c16.54-1.99,32.96-5.27,49.19-10.58,80.11-26.21,136.18-99.79,219.17-116.12,45.43-8.94,92.29,1.11,133.89,17.3,41.6,16.19,79.65,38.38,120.74,55.49,87.99,36.63,201.45,46.35,281.83-7.38,34.03-22.75,65.18-57.28,106.98-56.7,48.93.68,74.76,47.89,111.35,75.33,33.07,24.81,67.71,20.65,106.03,30.5.31,27.11,1.41,54.01,2.64,80.9,37.51,155.14-76.92,123.55-143.46,128.58-143.97,10.9-307.66,4.8-451.67,14.98-71.92,5.08-140.45-16.01-211.17-1.63-54.52,11.09-138.1,2.27-193.3,9.24-38.91,4.91-150.18-1.32-125.69-33.52-4.62-62.19-5.37-124.21-6.55-186.37Z"/>
  </g>
</svg>