<svg width="1920" height="1080" viewBox="0 0 1920 1080" xmlns="http://www.w3.org/2000/svg"><path d="M 0,1080 C 0,1080 0,216 0,216 C 39.99487179487181,219.1871794871795 79.98974358974363,222.37435897435898 218,219 C 356.0102564102564,215.62564102564102 592.0358974358974,205.6897435897436 697,225 C 801.9641025641026,244.3102564102564 775.8666666666667,292.8666666666666 880,288 C 984.1333333333333,283.1333333333334 1218.497435897436,224.84358974358977 1361,209 C 1503.502564102564,193.15641025641023 1554.1435897435897,219.7589743589743 1632,228 C 1709.8564102564103,236.2410256410257 1814.9282051282053,226.12051282051283 1920,216 C 1920,216 1920,1080 1920,1080 Z" fill="#668abf" opacity="0.12"/><path d="M 0,1080 C 0,1080 0,432 0,432 C 139.52564102564105,453.6871794871795 279.0512820512821,475.374358974359 412,475 C 544.9487179487179,474.625641025641 671.3205128205128,452.1897435897436 737,442 C 802.6794871794872,431.8102564102564 807.6666666666667,433.8666666666666 901,449 C 994.3333333333333,464.1333333333334 1176.0128205128206,492.3435897435898 1281,477 C 1385.9871794871794,461.6564102564102 1414.2820512820513,402.75897435897434 1508,388 C 1601.7179487179487,373.24102564102566 1760.8589743589744,402.62051282051283 1920,432 C 1920,432 1920,1080 1920,1080 Z" fill="#668abf" opacity="0.24"/><path d="M 0,1080 C 0,1080 0,648 0,648 C 134.34358974358975,642.8538461538462 268.6871794871795,637.7076923076924 365,638 C 461.3128205128205,638.2923076923076 519.5948717948719,644.0230769230768 631,624 C 742.4051282051281,603.9769230769232 906.9333333333332,558.2 992,583 C 1077.0666666666668,607.8 1082.6717948717949,703.176923076923 1182,713 C 1281.3282051282051,722.823076923077 1474.3794871794873,647.0923076923077 1613,622 C 1751.6205128205127,596.9076923076923 1835.8102564102564,622.4538461538461 1920,648 C 1920,648 1920,1080 1920,1080 Z" fill="#668abf" opacity="0.36"/><path d="M 0,1080 C 0,1080 0,864 0,864 C 160.8820512820513,844.9692307692308 321.7641025641026,825.9384615384615 420,808 C 518.2358974358974,790.0615384615385 553.8256410256411,773.2153846153848 648,801 C 742.1743589743589,828.7846153846152 894.9333333333334,901.2 995,930 C 1095.0666666666666,958.8 1142.4410256410256,943.9846153846155 1213,919 C 1283.5589743589744,894.0153846153845 1377.3025641025642,858.8615384615385 1499,848 C 1620.6974358974358,837.1384615384615 1770.3487179487179,850.5692307692307 1920,864 C 1920,864 1920,1080 1920,1080 Z" fill="#668abf" opacity="0.48"/></svg>