<svg id="visual" viewBox="0 0 900 600" width="900" height="600" xmlns="http://www.w3.org/2000/svg" xmlns:xlink="http://www.w3.org/1999/xlink" version="1.1"><path d="M0 338L25 341.5C50 345 100 352 150 379.8C200 407.7 250 456.3 300 476.2C350 496 400 487 450 467.3C500 447.7 550 417.3 600 390.7C650 364 700 341 750 334.7C800 328.3 850 338.7 875 343.8L900 349L900 601L875 601C850 601 800 601 750 601C700 601 650 601 600 601C550 601 500 601 450 601C400 601 350 601 300 601C250 601 200 601 150 601C100 601 50 601 25 601L0 601Z" fill="#668abf" stroke-linecap="round" stroke-linejoin="miter"></path></svg>