<svg id="visual" viewBox="0 0 900 1080" width="900" height="1080" xmlns="http://www.w3.org/2000/svg" xmlns:xlink="http://www.w3.org/1999/xlink" version="1.1"><path d="M0 808L21.5 806.2C43 804.3 86 800.7 128.8 798C171.7 795.3 214.3 793.7 257.2 772.3C300 751 343 710 385.8 694.8C428.7 679.7 471.3 690.3 514.2 708C557 725.7 600 750.3 642.8 742.5C685.7 734.7 728.3 694.3 771.2 698.7C814 703 857 752 878.5 776.5L900 801L900 1081L878.5 1081C857 1081 814 1081 771.2 1081C728.3 1081 685.7 1081 642.8 1081C600 1081 557 1081 514.2 1081C471.3 1081 428.7 1081 385.8 1081C343 1081 300 1081 257.2 1081C214.3 1081 171.7 1081 128.8 1081C86 1081 43 1081 21.5 1081L0 1081Z" fill="#668abf"></path><path d="M0 728L21.5 737.7C43 747.3 86 766.7 128.8 788.2C171.7 809.7 214.3 833.3 257.2 824.8C300 816.3 343 775.7 385.8 752.8C428.7 730 471.3 725 514.2 721.2C557 717.3 600 714.7 642.8 738.3C685.7 762 728.3 812 771.2 837.5C814 863 857 864 878.5 864.5L900 865L900 1081L878.5 1081C857 1081 814 1081 771.2 1081C728.3 1081 685.7 1081 642.8 1081C600 1081 557 1081 514.2 1081C471.3 1081 428.7 1081 385.8 1081C343 1081 300 1081 257.2 1081C214.3 1081 171.7 1081 128.8 1081C86 1081 43 1081 21.5 1081L0 1081Z" fill="#6084b9"></path><path d="M0 872L21.5 875C43 878 86 884 128.8 888.3C171.7 892.7 214.3 895.3 257.2 899.5C300 903.7 343 909.3 385.8 894.3C428.7 879.3 471.3 843.7 514.2 840.8C557 838 600 868 642.8 884.8C685.7 901.7 728.3 905.3 771.2 891.7C814 878 857 847 878.5 831.5L900 816L900 1081L878.5 1081C857 1081 814 1081 771.2 1081C728.3 1081 685.7 1081 642.8 1081C600 1081 557 1081 514.2 1081C471.3 1081 428.7 1081 385.8 1081C343 1081 300 1081 257.2 1081C214.3 1081 171.7 1081 128.8 1081C86 1081 43 1081 21.5 1081L0 1081Z" fill="#5b7fb3"></path><path d="M0 868L21.5 870.8C43 873.7 86 879.3 128.8 881C171.7 882.7 214.3 880.3 257.2 884.8C300 889.3 343 900.7 385.8 903.8C428.7 907 471.3 902 514.2 907.3C557 912.7 600 928.3 642.8 923.5C685.7 918.7 728.3 893.3 771.2 883.7C814 874 857 880 878.5 883L900 886L900 1081L878.5 1081C857 1081 814 1081 771.2 1081C728.3 1081 685.7 1081 642.8 1081C600 1081 557 1081 514.2 1081C471.3 1081 428.7 1081 385.8 1081C343 1081 300 1081 257.2 1081C214.3 1081 171.7 1081 128.8 1081C86 1081 43 1081 21.5 1081L0 1081Z" fill="#5679ad"></path><path d="M0 1015L21.5 1006.2C43 997.3 86 979.7 128.8 976.8C171.7 974 214.3 986 257.2 985.2C300 984.3 343 970.7 385.8 968.2C428.7 965.7 471.3 974.3 514.2 979C557 983.7 600 984.3 642.8 980.7C685.7 977 728.3 969 771.2 976C814 983 857 1005 878.5 1016L900 1027L900 1081L878.5 1081C857 1081 814 1081 771.2 1081C728.3 1081 685.7 1081 642.8 1081C600 1081 557 1081 514.2 1081C471.3 1081 428.7 1081 385.8 1081C343 1081 300 1081 257.2 1081C214.3 1081 171.7 1081 128.8 1081C86 1081 43 1081 21.5 1081L0 1081Z" fill="#5074a8"></path></svg>