<?xml version="1.0" encoding="UTF-8"?>
<svg id="Layer_2" data-name="Layer 2" xmlns="http://www.w3.org/2000/svg" viewBox="0 0 531.97 181.67">
  <defs>
    <style>
      .cls-1 {
        fill: #62c465;
        stroke: #377037;
        stroke-miterlimit: 10;
      }
    </style>
  </defs>
  <g id="Layer_1-2" data-name="Layer 1">
    <path class="cls-1" d="M.75,179.35c3.75-8.99,11.7-17.02,15.89-26.49,4.79-10.83,6.09-20.73,8.27-31.84,4.79-24.46,9.35-49.69,12.16-74.86,1.36-12.14,1.51-29.48,1.51-39.57,0,51.39-1.37,97.48,16.65,143.24,4.03,10.23,8.35,21.4,16.35,29.36.87-28.42,12.57-53.89,13.92-81.11.06,19.31-.56,72.59,22.4,79.56,4.38-11.53,4.3-26.33,7.53-38.78s5.33-24.08,9.4-35.77c9.49-27.28,28.35-57.6,30.28-86.73,1.71,35.32-10.92,71.62-.14,106.38,6.02,19.41,19.98,44.66,40.41,53.58.5.95.64,1.61,2.11,3.21,10.4-10.89,9.81-34.41,11.77-48.66,2.89-20.99,6.55-42.17,9.42-63.05,7.31,37.8,7.95,78.41,24.51,111.38,12.54-6.21,20.26-31.39,24.67-44.31,6.74-19.73,11.51-40.68,15.93-61.04-.34,39-3.4,77.53,31.74,99.63,12.51-12.56,9.91-46.42,11.74-63.45,2.21-20.65,6.25-41.44,4.58-62.22-7.81,18.94,10.73,62.69,15.51,83.15,3.35,14.35,6.87,30.9,12.32,44.91,18.89-20.9,22.82-64.66,22.45-91.44.54,11.28,5.29,22.39,6.81,32.87,1.32,9.15.23,19.19.76,28.76.94,17.18,9.67,32.59,30.01,28.53,3.46-14.79,5.21-29.73,6.45-45.17,1.73-21.71,7.78-45.99,5.92-67.71-1.37,24.74,6.8,58.25,21.19,78.64,8.82,12.49,22.78,20.86,33.25,32.46,10.21-17.25,6.74-44.18,7.53-63.44.99-24.06,4.37-48.01,4.62-72.04.18-17.27.6-23.62,12.18-36.02-.69,34.83-4.71,68.79-4.61,103.16.08,30.2,2.59,52.4,25.23,73.42v3.29L.75,179.35Z"/>
  </g>
</svg>