<svg width="229" height="1024" viewBox="0 0 229 1024" fill="none" xmlns="http://www.w3.org/2000/svg">
<path d="M20.5826 265.221C-10.2174 215.621 2.08263 84.5545 12.0826 25.2211C49.6826 -40.3788 101.749 -2.11218 123.083 25.2211C89.4826 41.2211 103.416 178.221 114.583 244.721C164.416 318.054 249.683 481.521 192.083 548.721C134.483 615.921 128.749 738.721 133.083 791.721C161.583 841.721 178.916 963.721 227.083 1023.72H175.083H123.083C108.583 988.388 71.1826 897.221 37.5826 815.221C-4.41736 712.721 81.0826 615.721 114.583 523.721C148.083 431.721 59.0826 327.221 20.5826 265.221Z" fill="#683A07" stroke="#683A07"/>
</svg>
