<?xml version="1.0" encoding="UTF-8"?>
<svg id="Layer_2" data-name="Layer 2" xmlns="http://www.w3.org/2000/svg" viewBox="0 0 530.72 195.01">
  <defs>
    <style>
      .cls-1 {
        fill: #62c465;
      }

      .cls-2 {
        fill: #377037;
      }
    </style>
  </defs>
  <g id="Layer_1-2" data-name="Layer 1">
    <g>
      <path class="cls-1" d="M268.75,194.51c-75.32,0-149.21-6.73-205.17-12.6-24-2.52-46.27-4.06-62.83-4.34,1.88-4.24,4.63-8.23,7.54-12.44,2.93-4.24,5.96-8.63,8.05-13.35,4.03-9.11,5.61-17.6,7.29-26.59.33-1.76.66-3.54,1.01-5.36,4.38-22.4,9.26-48.82,12.17-74.9.2-1.81.38-3.79.55-5.94.34,37.91,2.66,74.22,16.65,109.74l.2.51c3.9,9.9,8.32,21.12,16.26,29.02l.82.81.04-1.15c.45-14.65,3.83-28.71,7.1-42.29,2.26-9.38,4.57-19,5.88-28.74.3,23.84,2.65,63.85,22.7,69.94l.45.14.17-.44c2.54-6.68,3.6-14.55,4.63-22.16.76-5.61,1.54-11.4,2.91-16.67,1-3.86,1.92-7.78,2.81-11.57,1.88-7.99,3.82-16.25,6.58-24.17,3.11-8.93,7.15-18.02,11.43-27.65,7.55-16.99,15.33-34.5,18.04-51.76-.04,11-1.21,22.15-2.35,33-2.28,21.82-4.65,44.39,2.07,66.04,6.25,20.14,20.17,44.83,40.52,53.82.07.13.13.26.19.38.34.71.7,1.45,1.92,2.78l.36.39.37-.38c8.26-8.65,9.7-25.25,10.85-38.59.32-3.74.63-7.27,1.05-10.35,1.44-10.46,3.1-21.15,4.7-31.48,1.46-9.38,2.96-19.04,4.29-28.54,1.87,10.16,3.31,20.6,4.72,30.74,3.71,26.75,7.54,54.41,19.27,77.77l.22.44.45-.22c11.86-5.88,19.44-28.35,23.97-41.77.33-.99.65-1.94.96-2.83,6.27-18.36,10.84-37.76,14.9-56.31-.01.97-.03,1.95-.04,2.92-.49,36.75-.96,71.47,32.07,92.24l.34.21.28-.28c9.64-9.68,10.43-31.54,11.06-49.1.2-5.44.38-10.57.82-14.65.53-4.95,1.18-9.99,1.8-14.87.74-5.78,1.5-11.73,2.09-17.65,2.33,11.21,6.11,23.22,9.48,33.93,2.32,7.37,4.51,14.33,5.74,19.58.41,1.74.82,3.51,1.23,5.31,2.96,12.81,6.31,27.33,11.11,39.67l.29.75.54-.6c18.9-20.92,22.16-62.99,22.55-83.85.74,3.92,1.77,7.8,2.79,11.6,1.24,4.66,2.42,9.06,3.05,13.42.79,5.44.71,11.33.64,17.02-.05,3.85-.1,7.84.11,11.69,1.02,18.57,10.07,29.66,24.22,29.66,2.02,0,4.17-.22,6.38-.67l.32-.06.07-.31c3.83-16.36,5.46-32.77,6.46-45.25.59-7.45,1.67-15.03,2.82-23.05,1.12-7.87,2.27-15.96,2.92-23.91,2.62,21.83,10.24,43.66,20.47,58.15,5.13,7.27,12.11,13.25,18.86,19.04,4.93,4.23,10.03,8.6,14.43,13.47l.46.5.35-.58c7.88-13.3,7.69-32.29,7.52-49.04-.05-5.2-.1-10.11.08-14.64.43-10.42,1.32-20.99,2.18-31.21,1.13-13.38,2.3-27.21,2.44-40.84.18-17.03.74-23.28,11.15-34.72-.34,15.23-1.31,30.5-2.25,45.28-1.18,18.51-2.39,37.65-2.34,56.56.08,28.23,1.96,51.58,24.68,73.12-49,9.67-99.99,11.97-149.31,14.19-14.21.64-28.91,1.3-43.34,2.13-21.99,1.26-44.95,1.91-68.27,1.91ZM330.57,68.62c-1.21-8.28-1.14-14.75.21-19.61.36,5.98.29,12.34-.21,19.61Z"/>
      <path class="cls-2" d="M509.04,2.65c-.36,14.77-1.3,29.57-2.21,43.91-1.18,18.52-2.39,37.67-2.34,56.59.08,28.06,1.93,51.33,24.14,72.82-48.68,9.5-99.3,11.79-148.29,14-14.22.64-28.92,1.31-43.35,2.14-21.97,1.26-44.93,1.9-68.24,1.9-75.29,0-149.17-6.73-205.12-12.6-23.65-2.48-45.62-4.01-62.11-4.33,1.85-3.95,4.45-7.71,7.18-11.67,2.94-4.26,5.99-8.67,8.1-13.43,4.06-9.16,5.64-17.68,7.32-26.7.33-1.76.66-3.54,1.01-5.35,4.22-21.58,8.9-46.89,11.85-72.05.65,34.76,3.64,68.22,16.57,101.03l.2.51c3.92,9.95,8.35,21.22,16.37,29.19l1.63,1.63.07-2.3c.44-14.6,3.82-28.63,7.09-42.19,1.82-7.55,3.67-15.24,5.01-23.04.66,24.16,4.13,58.9,22.94,64.61l.89.27.33-.87c2.56-6.73,3.63-14.63,4.66-22.27.76-5.59,1.54-11.38,2.9-16.61,1-3.86,1.93-7.79,2.82-11.58,1.87-7.97,3.81-16.22,6.56-24.12,3.1-8.91,7.14-18,11.41-27.61,6.7-15.08,13.58-30.56,16.95-45.94-.34,9.01-1.29,18.07-2.21,26.92-2.29,21.87-4.66,44.49,2.09,66.24,6.26,20.19,20.21,44.94,40.63,54.06.04.07.07.14.1.21.36.75.73,1.52,2.01,2.9l.72.78.74-.77c8.38-8.78,9.83-25.47,10.99-38.89.32-3.73.63-7.25,1.05-10.32,1.44-10.46,3.1-21.14,4.7-31.47,1.3-8.37,2.63-16.96,3.86-25.47,1.61,9.18,2.9,18.54,4.17,27.66,3.71,26.79,7.55,54.49,19.32,77.93l.45.89.89-.44c12.05-5.97,19.67-28.56,24.22-42.06.33-.99.65-1.94.96-2.82,5.75-16.81,10.06-34.49,13.86-51.59-.23,17.82-.32,34.66,3.49,50.06,4.44,17.94,13.87,31.24,28.83,40.65l.68.43.56-.57c9.78-9.82,10.57-31.78,11.21-49.43.2-5.43.38-10.55.82-14.62.53-4.94,1.18-9.98,1.8-14.86.61-4.78,1.24-9.67,1.77-14.56,2.35,10.34,5.76,21.17,8.83,30.93,2.32,7.36,4.5,14.31,5.72,19.54.41,1.74.82,3.51,1.23,5.31,2.96,12.83,6.32,27.36,11.13,39.74l.59,1.51,1.09-1.2c17.81-19.7,21.81-57.99,22.57-79.95.59,2.53,1.26,5.03,1.92,7.5,1.24,4.64,2.41,9.03,3.04,13.36.78,5.4.71,11.27.63,16.94-.05,3.86-.1,7.85.11,11.72.46,8.41,2.68,15.62,6.41,20.85,4.33,6.07,10.66,9.28,18.31,9.28,2.05,0,4.23-.23,6.48-.68l.63-.13.15-.63c3.83-16.39,5.47-32.83,6.47-45.32.59-7.43,1.67-15.01,2.81-23.02.92-6.44,1.85-13.02,2.52-19.56,3.07,20.42,10.38,40.42,19.97,54.01,5.17,7.32,12.17,13.32,18.94,19.13,4.92,4.22,10.01,8.58,14.38,13.42l.91,1.01.69-1.17c7.95-13.43,7.76-32.48,7.59-49.3-.05-5.2-.1-10.1.08-14.62.43-10.4,1.32-20.97,2.18-31.19,1.13-13.38,2.3-27.23,2.44-40.88.09-8.77.25-14.46,1.77-19.56,1.36-4.57,3.83-8.69,8.35-13.82M330.46,53.33c.07,2.96.05,6.04-.07,9.3-.27-3.49-.24-6.59.07-9.3M510.1,0c-11.58,12.4-12,18.76-12.18,36.02-.25,24.03-3.63,47.98-4.62,72.04-.79,19.26,2.68,46.19-7.53,63.44-10.47-11.6-24.43-19.97-33.25-32.46-11.71-16.59-19.3-41.86-20.99-64.03-.8,17.64-4.78,36.15-6.13,53.1-1.23,15.45-2.98,30.38-6.45,45.17-2.23.45-4.32.66-6.28.66-15.87,0-22.88-13.9-23.72-29.18-.52-9.56.56-19.61-.76-28.76-1.51-10.48-6.26-21.59-6.81-32.87.37,26.78-3.55,70.54-22.45,91.44-5.45-14.01-8.97-30.56-12.32-44.91-3.15-13.46-12.24-36.98-15.88-56.9-1.04,12.02-2.93,24.02-4.21,35.97-1.83,17.04.77,50.89-11.74,63.45-35.14-22.1-32.08-60.63-31.74-99.63-4.41,20.36-9.18,41.31-15.93,61.04-4.42,12.92-12.14,38.1-24.67,44.31-16.56-32.97-17.2-73.58-24.51-111.38-2.87,20.89-6.53,42.07-9.42,63.05-1.96,14.25-1.37,37.77-11.77,48.66-1.47-1.6-1.61-2.26-2.11-3.21-20.43-8.92-34.39-34.17-40.41-53.58-10.78-34.76,1.85-71.07.14-106.38-1.92,29.13-20.78,59.45-30.28,86.73-4.07,11.69-6.28,23.75-9.4,35.77-3.23,12.45-3.15,27.25-7.53,38.78-22.96-6.98-22.34-60.25-22.4-79.56-1.35,27.22-13.06,52.69-13.92,81.11-8-7.96-12.32-19.13-16.35-29.36C36.47,102.8,37.84,56.72,37.84,5.34c0,10.09-.16,27.4-1.51,39.53-2.81,25.17-7.38,50.4-12.16,74.86-2.17,11.11-3.48,21.01-8.27,31.84-4.19,9.47-12.14,17.49-15.89,26.49,17.67.27,41.13,2.01,63.53,4.35,68.59,7.19,136.6,12.6,205.23,12.6,22.68,0,45.44-.59,68.29-1.91,64.82-3.73,130.22-3.88,193.68-16.53-22.64-21.02-25.15-43.22-25.23-73.42-.09-34.37,3.93-68.33,4.61-103.16h0ZM37.84,5.31s0,.02,0,.03c0-.01,0-.02,0-.03h0ZM331.11,46.51c-2.67,6.49-2.26,15.88-.36,26.26.76-8.75,1.07-17.5.36-26.26h0ZM431.33,60.41c-.25,4.61-.18,9.53.21,14.61.22-4.95.2-9.84-.21-14.61h0Z"/>
    </g>
  </g>
</svg>