<svg id="visual" viewBox="0 0 960 540" width="960" height="540" xmlns="http://www.w3.org/2000/svg" xmlns:xlink="http://www.w3.org/1999/xlink" version="1.1"><rect x="0" y="0" width="960" height="540" fill="#0091ff"></rect><path d="M0 161L22.8 153.7C45.7 146.3 91.3 131.7 137 136.5C182.7 141.3 228.3 165.7 274 162.7C319.7 159.7 365.3 129.3 411.2 116.7C457 104 503 109 548.8 116.3C594.7 123.7 640.3 133.3 686 132.5C731.7 131.7 777.3 120.3 823 114.5C868.7 108.7 914.3 108.3 937.2 108.2L960 108L960 541L937.2 541C914.3 541 868.7 541 823 541C777.3 541 731.7 541 686 541C640.3 541 594.7 541 548.8 541C503 541 457 541 411.2 541C365.3 541 319.7 541 274 541C228.3 541 182.7 541 137 541C91.3 541 45.7 541 22.8 541L0 541Z" fill="#5074a8"></path><path d="M0 204L22.8 200.7C45.7 197.3 91.3 190.7 137 185.5C182.7 180.3 228.3 176.7 274 181.2C319.7 185.7 365.3 198.3 411.2 207.7C457 217 503 223 548.8 220.7C594.7 218.3 640.3 207.7 686 208C731.7 208.3 777.3 219.7 823 235.5C868.7 251.3 914.3 271.7 937.2 281.8L960 292L960 541L937.2 541C914.3 541 868.7 541 823 541C777.3 541 731.7 541 686 541C640.3 541 594.7 541 548.8 541C503 541 457 541 411.2 541C365.3 541 319.7 541 274 541C228.3 541 182.7 541 137 541C91.3 541 45.7 541 22.8 541L0 541Z" fill="#5b7fb3"></path><path d="M0 246L22.8 245.5C45.7 245 91.3 244 137 256.2C182.7 268.3 228.3 293.7 274 311.8C319.7 330 365.3 341 411.2 329.3C457 317.7 503 283.3 548.8 271C594.7 258.7 640.3 268.3 686 263.8C731.7 259.3 777.3 240.7 823 237.2C868.7 233.7 914.3 245.3 937.2 251.2L960 257L960 541L937.2 541C914.3 541 868.7 541 823 541C777.3 541 731.7 541 686 541C640.3 541 594.7 541 548.8 541C503 541 457 541 411.2 541C365.3 541 319.7 541 274 541C228.3 541 182.7 541 137 541C91.3 541 45.7 541 22.8 541L0 541Z" fill="#668abf"></path><path d="M0 399L22.8 389.3C45.7 379.7 91.3 360.3 137 355.8C182.7 351.3 228.3 361.7 274 364.5C319.7 367.3 365.3 362.7 411.2 363.3C457 364 503 370 548.8 363.2C594.7 356.3 640.3 336.7 686 333C731.7 329.3 777.3 341.7 823 349.3C868.7 357 914.3 360 937.2 361.5L960 363L960 541L937.2 541C914.3 541 868.7 541 823 541C777.3 541 731.7 541 686 541C640.3 541 594.7 541 548.8 541C503 541 457 541 411.2 541C365.3 541 319.7 541 274 541C228.3 541 182.7 541 137 541C91.3 541 45.7 541 22.8 541L0 541Z" fill="#668abf"></path><path d="M0 426L22.8 430.3C45.7 434.7 91.3 443.3 137 434.2C182.7 425 228.3 398 274 388.7C319.7 379.3 365.3 387.7 411.2 386.8C457 386 503 376 548.8 379.3C594.7 382.7 640.3 399.3 686 410.5C731.7 421.7 777.3 427.3 823 420.8C868.7 414.3 914.3 395.7 937.2 386.3L960 377L960 541L937.2 541C914.3 541 868.7 541 823 541C777.3 541 731.7 541 686 541C640.3 541 594.7 541 548.8 541C503 541 457 541 411.2 541C365.3 541 319.7 541 274 541C228.3 541 182.7 541 137 541C91.3 541 45.7 541 22.8 541L0 541Z" fill="#5b7fb3"></path><path d="M0 494L22.8 482.2C45.7 470.3 91.3 446.7 137 439.5C182.7 432.3 228.3 441.7 274 444.7C319.7 447.7 365.3 444.3 411.2 444.5C457 444.7 503 448.3 548.8 454.2C594.7 460 640.3 468 686 464.2C731.7 460.3 777.3 444.7 823 437.8C868.7 431 914.3 433 937.2 434L960 435L960 541L937.2 541C914.3 541 868.7 541 823 541C777.3 541 731.7 541 686 541C640.3 541 594.7 541 548.8 541C503 541 457 541 411.2 541C365.3 541 319.7 541 274 541C228.3 541 182.7 541 137 541C91.3 541 45.7 541 22.8 541L0 541Z" fill="#5074a8"></path></svg>