<svg id="visual" viewBox="0 0 900 600" width="900" height="600" xmlns="http://www.w3.org/2000/svg" xmlns:xlink="http://www.w3.org/1999/xlink" version="1.1"><rect x="0" y="0" width="900" height="600" fill="#381E1C"></rect><path d="M0 83L30 83.5C60 84 120 85 180 89.3C240 93.7 300 101.3 360 94.8C420 88.3 480 67.7 540 69.3C600 71 660 95 720 106.5C780 118 840 117 870 116.5L900 116L900 0L870 0C840 0 780 0 720 0C660 0 600 0 540 0C480 0 420 0 360 0C300 0 240 0 180 0C120 0 60 0 30 0L0 0Z" fill="#090504" stroke-linecap="round" stroke-linejoin="miter"></path></svg>