<?xml version="1.0" encoding="UTF-8"?>
<svg id="Layer_2" data-name="Layer 2" xmlns="http://www.w3.org/2000/svg" viewBox="0 0 601.06 714.38">
  <defs>
    <style>
      .cls-1 {
        fill: red;
      }

      .cls-2 {
        fill: #333;
      }

      .cls-3 {
        fill: #ff337d;
      }
    </style>
  </defs>
  <g id="Layer_1-2" data-name="Layer 1">
    <g>
      <g>
        <rect class="cls-2" x="101.29" y="66.19" width="411" height="582" transform="translate(-105.14 129.12) rotate(-20.37)"/>
        <path class="cls-1" d="M404.05,0l-46.87,17.4,2.09,5.62,46.87-17.4-2.09-5.62h0ZM310.3,34.81l-30.3,11.25s0,0-.02,0l-.06.02s0,0,0,0l-2.45.91s-.01,0-.02,0h-.02s-.02.02-.03.02l-.05.02s-.01,0-.01,0l-.17.06s-.02,0-.03.01h-.03s-.07.04-.1.05h-.03s-.02.02-.03.02h-.02c-.06.03-.11.05-.17.07h-.03c-.08.04-.15.07-.23.1h0s-.07.03-.11.04h-.03s-.03.02-.05.03l-.13.05s-.03.01-.04.02h-.02s-.03.02-.05.03h-.02s-.02.01-.02.02l-.04.02s-.1.04-.15.06l-.1.04s-.02,0-.03,0h-.02c-.05.03-.11.05-.16.07h-.02c-.07.03-.14.06-.2.08l-.05.02c-.07.03-.14.05-.21.08h-.02c-.07.03-.14.06-.21.08h-.04s-.03.03-.04.03h0s-.04.01-.05.02h-.01s-.07.03-.11.04h0s-.08.03-.11.05h0s-.05.02-.08.03l-.09.03c-.06.02-.12.05-.18.07h0c-.08.03-.15.06-.23.09h0c-.15.06-.31.11-.45.17h-.01c-5.81,2.16-9.93,3.69-9.93,3.69l2.09,5.62,46.87-17.4-2.09-5.62h0ZM216.55,69.61l-46.87,17.4,2.09,5.62,46.87-17.4-2.09-5.62h0ZM122.81,104.42l-46.87,17.4,2.09,5.62,46.87-17.4-2.09-5.62h0ZM29.06,139.23s-14.99,5.56-23.44,8.7h0l-5.62,2.09h0l.04.11s0,0,0,0v.02s0,0,0,0h0s0,0,0,0h0s0,0,0,0h0s0,.01,0,.01h0s0,.01,0,.02v.02s0,0,0,0h0s0,0,0,.01h0s0,.02,0,.02h0s0,0,0,.01h0s0,0,0,.01l.02.06s0,0,0,0v.03s.01,0,.01,0h0s0,.02,0,.02h0s0,.02,0,.03h0s.01.04.02.06v.02s.01.01.01.02v.02s.02.04.03.05h0s.02.07.04.1h0s.02.06.03.08v.03s.03.05.04.08h0s0,.03.01.05l.02.04s0,0,0,0h0c.03.09.06.17.09.25h0c.03.07.05.15.08.23h0s0,.02,0,.03v.02c.03.06.05.11.07.17v.02c.05.12.1.26.15.39h0s.03.09.05.14h0s.02.05.02.07v.03s.02.02.02.03v.02s.01,0,.01.01h0c.01.05.03.09.04.13l.02.05s.02.06.03.08l.03.09s0,0,0,.01v.03s.01.01.02.02l.1.26s0,0,0,0l.03.07s0,0,0,0v.04s.05.09.06.14v.02s.03.07.05.1l.02.07s.02.05.03.07h0s.02.06.03.08h0s.02.05.03.08v.02s.01,0,.01.01l.04.1s0,.03.01.04v.02s0,0,.01.01v.04s.02,0,.02,0l.39,1.05s0,.01,0,.02v.03s.01,0,.02,0l4.74,12.78,5.62-2.09-4.53-12.19,23.44-8.7-2.09-5.62h0ZM29.64,212.62l-5.62,2.09,17.4,46.87,5.62-2.09-17.4-46.87h0ZM64.45,306.36l-5.62,2.09,17.4,46.87,5.62-2.09-17.4-46.87h0ZM99.26,400.11l-5.62,2.09,17.4,46.87,5.62-2.09-17.4-46.87h0ZM134.06,493.86l-5.62,2.09,17.4,46.87,5.62-2.09-17.4-46.87h0ZM168.87,587.6l-5.62,2.09s1.64,4.41,3.91,10.52h0s.03.07.04.11v.02s.02.03.03.05h0s0,.03.01.04l13.42,36.14,5.62-2.09-17.4-46.87h0ZM203.68,681.35l-5.62,2.09s6.09,16.39,9.4,25.31h0s2.09,5.62,2.09,5.62h0l.68-.25s.01,0,.02,0l.74-.27s0,0,0,0h.02s0,0,0,0l.48-.18s0,0,.01,0l.08-.03s0,0,.01,0h.02s0-.01.01-.01h.02s0,0,0-.01h.03s0-.01,0-.01h.03s.03-.02.05-.03l.04-.02s.01,0,.02,0h0s.06-.03.09-.04h.02s0,0,0,0l.05-.02s.02,0,.04-.01h0s.02,0,.02,0l.24-.09s0,0,.01,0l.26-.1s.07-.03.11-.04h.02s.01-.01.02-.02h0s.02-.01.03-.01h.03s0-.01,0-.01l.35-.13c.06-.02.12-.04.18-.07l.23-.08s0,0,.01,0l.07-.03s0,0,0,0h.04s0-.01,0-.02h.03s0-.02.01-.02l.07-.03s.04-.01.05-.02h.02s.02-.01.02-.02l.28-.1s.05-.02.07-.03h0s.02-.01.03-.01h.02s.02-.01.02-.02h.03s.06-.04.09-.05h.02c.1-.04.2-.08.3-.12h0s.07-.03.11-.04h.03s0-.02.01-.02l.22-.08h0c4.59-1.7,10.31-3.83,10.31-3.83l-2.09-5.62-10.31,3.83-9.4-25.31h0ZM317.14,668.03l-46.87,17.4,2.09,5.62s13.97-5.19,26.66-9.9l20.21-7.51-2.09-5.62h0ZM410.88,633.22l-46.87,17.4,2.09,5.62,43.29-16.07s.01,0,.02,0l.09-.03s.02,0,.03-.01h.02s.01-.01.02-.01l.08-.03s.02,0,.04-.01h.02s.02-.01.02-.02l.27-.1s.03-.01.05-.02h.02s.02-.01.03-.02h0s.02,0,.03-.01h0s.02,0,.03-.01h0s.01,0,.02,0h.03s.08-.04.11-.05h.02s.04-.02.06-.03h0s.02,0,.02-.01l.05-.02s0,0,.01,0h.01s.06-.03.09-.04h0s.04-.02.06-.02h0s0,0,.01,0l.11-.04s.02,0,.03-.01l.06-.02s.01,0,.02,0l.14-.05s.01,0,.02,0l.04-.02s.07-.03.1-.04h.01s.07-.03.1-.04h.02s.06-.03.09-.04h.02c.99-.38,1.55-.58,1.55-.58l-2.09-5.62h0ZM504.63,598.41l-46.87,17.4,2.09,5.62,18.69-6.94s.02,0,.04-.01h.03s0-.01,0-.01l.68-.25h0s.07-.03.07-.03h0s.19-.07.19-.07c0,0,.01,0,.02,0l.12-.04s.01,0,.02,0l.06-.02s0,0,0,0l.32-.12s.01,0,.02,0l.11-.04s.02,0,.03-.01l.05-.02c.07-.03.15-.05.22-.08l.04-.02s.06-.02.1-.04l.11-.04s0,0,.02,0l.04-.02s.06-.02.09-.03l.05-.02s.03,0,.04-.01l.15-.06s.03-.01.05-.02l.04-.02s.05-.02.08-.03l.06-.02s.06-.02.09-.03h.04s.02-.02.04-.03l.11-.04c.08-.03.16-.06.24-.09h.02c.08-.04.16-.07.23-.09l.06-.02c.35-.13.71-.26,1.07-.4h0c11.72-4.35,23.43-8.7,23.43-8.7l-2.09-5.62h0ZM598.38,563.6l-46.87,17.4,2.09,5.62,46.87-17.4-2.09-5.62h0ZM583.65,483.73l-5.62,2.09,17.4,46.87,5.62-2.09-17.4-46.87h0ZM548.85,389.99l-5.62,2.09,17.4,46.87,5.62-2.09-17.4-46.87h0ZM514.04,296.24l-5.62,2.09,17.4,46.87,5.62-2.09-17.4-46.87h0ZM479.23,202.49l-5.62,2.09,17.4,46.87,5.62-2.09s-3.33-8.97-7.08-19.06h0c-.13-.36-.27-.72-.4-1.08h0c-.13-.35-.25-.7-.38-1.04l-.04-.1s-.02-.05-.03-.08v-.04s-.03-.05-.04-.08l-.02-.06s0-.02,0-.03v-.03s-.02-.02-.02-.03l-.02-.05s0-.01,0-.02l-.07-.18s-.01-.03-.02-.04v-.03s-.02-.03-.02-.04l-.04-.11s0-.01,0-.02l-.02-.05s0,0,0-.01l-.12-.34s0-.02-.01-.04h0s-.01-.03-.02-.05l-.02-.05s0-.01,0-.02l-.02-.05s0,0,0-.02l-.02-.05s0-.01,0-.02l-1.59-4.3s0,0,0-.01l-7.34-19.77h0ZM444.42,108.75l-5.62,2.09,17.4,46.87,5.62-2.09-11.47-30.9s0-.02-.01-.03l-.05-.15c-3.22-8.69-5.87-15.8-5.87-15.8h0ZM409.62,15l-5.62,2.09,17.4,46.87,5.62-2.09-17.4-46.87h0Z"/>
      </g>
      <g>
        <path class="cls-3" d="M407.12,572.44l-11.49-4.53c-13.36-5.3-24.52-10.01-33.49-14.12-8.97-4.11-16.35-8.05-22.15-11.82s-10.27-7.55-13.43-11.34c-3.16-3.79-5.58-7.96-7.27-12.52-3.46-9.32-3.23-18.26.7-26.82s10.55-14.57,19.86-18.03c5.15-1.91,10.46-2.64,15.93-2.19,5.47.45,10.62,2.03,15.46,4.75,1.9-5.22,4.77-9.78,8.62-13.69s8.35-6.82,13.5-8.74c9.32-3.46,18.26-3.23,26.82.7,8.56,3.93,14.57,10.55,18.03,19.86,1.69,4.56,2.58,9.3,2.66,14.24s-.84,10.72-2.78,17.35-4.96,14.44-9.07,23.41c-4.11,8.97-9.5,19.82-16.16,32.56l-5.75,10.93ZM401.16,556.38c6.35-12.06,11.47-22.27,15.35-30.65,3.88-8.38,6.77-15.48,8.66-21.32,1.89-5.83,2.88-10.77,2.96-14.8s-.52-7.78-1.81-11.25c-2.21-5.95-6.03-10.17-11.47-12.66s-11.13-2.63-17.07-.43c-4.66,1.73-8.48,4.64-11.47,8.74s-4.47,8.46-4.45,13.07l-11.3,4.2c-3-3.51-6.96-5.84-11.9-7s-9.74-.87-14.4.86c-5.95,2.21-10.17,6.03-12.66,11.47s-2.63,11.13-.43,17.07c1.29,3.47,3.28,6.7,5.97,9.71s6.66,6.1,11.9,9.28c5.24,3.18,12.07,6.68,20.48,10.5,8.41,3.81,18.95,8.22,31.63,13.21Z"/>
        <path class="cls-3" d="M345.12,416.44l-11.49-4.53c-13.36-5.3-24.52-10.01-33.49-14.12-8.97-4.11-16.35-8.05-22.15-11.82s-10.27-7.55-13.43-11.34c-3.16-3.79-5.58-7.96-7.27-12.52-3.46-9.32-3.23-18.26.7-26.82s10.55-14.57,19.86-18.03c5.15-1.91,10.46-2.64,15.93-2.19s10.62,2.03,15.46,4.75c1.9-5.22,4.77-9.78,8.62-13.69s8.35-6.82,13.5-8.74c9.32-3.46,18.26-3.23,26.82.7s14.57,10.55,18.03,19.86c1.69,4.56,2.58,9.3,2.66,14.24s-.84,10.72-2.78,17.35-4.96,14.44-9.07,23.41c-4.11,8.97-9.5,19.82-16.16,32.56l-5.75,10.93ZM339.16,400.38c6.35-12.06,11.47-22.27,15.35-30.65,3.88-8.38,6.77-15.48,8.66-21.32,1.89-5.83,2.88-10.77,2.96-14.8s-.52-7.78-1.81-11.25c-2.21-5.95-6.03-10.17-11.47-12.66s-11.13-2.63-17.07-.43c-4.66,1.73-8.48,4.64-11.47,8.74-2.99,4.1-4.47,8.46-4.45,13.07l-11.3,4.2c-3-3.51-6.96-5.84-11.9-7s-9.74-.87-14.4.86c-5.95,2.21-10.17,6.03-12.66,11.47s-2.63,11.13-.43,17.07c1.29,3.47,3.28,6.7,5.97,9.71s6.66,6.1,11.9,9.28c5.24,3.18,12.07,6.68,20.48,10.5,8.41,3.81,18.95,8.22,31.63,13.21Z"/>
        <path class="cls-3" d="M283.12,260.44l-11.49-4.53c-13.36-5.3-24.52-10.01-33.49-14.12-8.97-4.11-16.35-8.05-22.15-11.82s-10.27-7.55-13.43-11.34c-3.16-3.79-5.58-7.96-7.27-12.52-3.46-9.32-3.23-18.26.7-26.82s10.55-14.57,19.86-18.03c5.15-1.91,10.46-2.64,15.93-2.19s10.62,2.03,15.46,4.75c1.9-5.22,4.77-9.78,8.62-13.69s8.35-6.82,13.5-8.74c9.32-3.46,18.26-3.23,26.82.7s14.57,10.55,18.03,19.86c1.69,4.56,2.58,9.3,2.66,14.24s-.84,10.72-2.78,17.35-4.96,14.44-9.07,23.41c-4.11,8.97-9.5,19.82-16.16,32.56l-5.75,10.93ZM277.16,244.38c6.35-12.06,11.47-22.27,15.35-30.65,3.88-8.38,6.77-15.48,8.66-21.32,1.89-5.83,2.88-10.77,2.96-14.8s-.52-7.78-1.81-11.25c-2.21-5.95-6.03-10.17-11.47-12.66s-11.13-2.63-17.07-.43c-4.66,1.73-8.48,4.64-11.47,8.74s-4.47,8.46-4.45,13.07l-11.3,4.2c-3-3.51-6.96-5.84-11.9-7s-9.74-.87-14.4.86c-5.95,2.21-10.17,6.03-12.66,11.47s-2.63,11.13-.43,17.07c1.29,3.47,3.28,6.7,5.97,9.71s6.66,6.1,11.9,9.28c5.24,3.18,12.07,6.68,20.48,10.5s18.95,8.22,31.63,13.21Z"/>
      </g>
    </g>
  </g>
</svg>