<?xml version="1.0" encoding="UTF-8"?>
<svg id="Layer_2" data-name="Layer 2" xmlns="http://www.w3.org/2000/svg" viewBox="0 0 544.93 677.37">
  <defs>
    <style>
      .cls-1 {
        fill: red;
      }

      .cls-2 {
        fill: #333;
      }

      .cls-3 {
        fill: #ff337d;
      }
    </style>
  </defs>
  <g id="Layer_1-2" data-name="Layer 1">
    <g>
      <g>
        <rect class="cls-2" x="-18.54" y="133.19" width="582" height="411" transform="translate(-114.76 536.19) rotate(-78.21)"/>
        <path class="cls-1" d="M123.02,0s-.04.19-.11.55h0c-.04.18-.08.4-.14.66h0c-.03.13-.06.27-.09.42h0c-.02.08-.03.15-.05.23h0s-.02.08-.02.12h0s0,.04-.01.06v.02s0,0,0,0v.06s-.03.07-.03.11h0s-.02.09-.03.13h0s-.01.07-.02.1h0s0,.01,0,.02v.06s-.02.06-.03.09v.02c-.02.08-.04.17-.06.26v.02s0,.01,0,.02h0s-.01.08-.02.11h0s0,.05-.01.07l-.02.12s0,.02,0,.03v.02s0,.01,0,.02v.02s0,0,0,.01v.03s-.01.04-.02.06h0s0,.04-.01.07v.03s-.02.08-.03.13v.03s-.02.08-.03.12v.06s-.02.03-.02.05h0s0,.03,0,.04l-.02.09s-.01.05-.02.07h0s0,.02,0,.03v.04s-.01.04-.02.05l-.02.11s0,0,0,0l-.13.62s0,0,0,0l-.08.36s0,0,0,0v.04s0,0,0,.01l-.02.08s0,0,0,.01l-.05.23h0s-9.02,43.21-9.02,43.21l5.87,1.23L128.9,1.23l-5.87-1.23h0ZM102.59,97.89l-4.31,20.63s-.01.07-.02.11v.02c-.02.09-.04.18-.06.26v.03c-2.77,13.26-5.83,27.89-5.83,27.89l5.87,1.23,10.22-48.94-5.87-1.23h0ZM82.15,195.78l-10.22,48.94,5.87,1.23,10.22-48.94-5.87-1.23h0ZM61.72,293.67l-10.22,48.94,5.87,1.23,10.22-48.94-5.87-1.23h0ZM41.28,391.56l-10.22,48.94,5.87,1.23,10.22-48.94-5.87-1.23h0ZM20.84,489.45l-.05.23s0,0,0,0l-10.17,48.71,5.87,1.23,10.22-48.94-5.87-1.23h0ZM1.23,583.42l-.82,3.92h0l-.4,1.9s0,0,0,0h0s0,0,0,0h0s0,0,0,0h0s0,0,0,.01h0s0,0,0,0h0s0,0,0,0h0s0,0,0,0h0s0,0,0,0h0s0,0,0,0h0s0,0,0,0h0s0,0,0,0H0s0,.01,0,.01H0s0,0,0,0h0s0,0,0,0h0l46.99,9.81,1.23-5.87-46.99-9.81h0ZM97.16,603.45l-1.23,5.87,48.94,10.22,1.23-5.87-48.94-10.22h0ZM195.05,623.88l-1.23,5.87,48.94,10.22,1.23-5.87-48.94-10.22h0ZM292.94,644.32l-1.23,5.87,48.94,10.22,1.23-5.87-48.94-10.22h0ZM419.5,659.51l-2.25,10.77-26.43-5.52-1.23,5.87,31.33,6.54h0s.01,0,.01,0c0,0,0,0,0,0h.03s.01,0,.02,0h.02s0,0,0,0h0s0,0,0,0h.05s0,.01,0,.01h.03s0,0,0,0h.01s0,0,0,0h.01s0,0,0,0h.03s.03.01.04.01h0s0,0,0,0h.01s0,0,0,0h0s0,0,0,0h0s.05.01.08.02h0s.01,0,.02,0h0s.02,0,.02,0h0s.03,0,.05.01h0s.06.01.09.02h0c.07.02.14.03.19.04h0s0,0,0,0h.01s0,0,0,0h0s0,0,0,0h0s0,0,0,0h0s0,0,0,0c0,0,0,0,0,0h0s0,0,0,0h.01s0,0,0,0h.07s3.47-16.63,3.47-16.63l-5.87-1.23h0ZM421.74,677.34h0s0,0,0,0h0ZM421.76,677.34h-.01s.01,0,.01,0h0ZM421.77,677.35h0s0,0,0,0h0ZM421.78,677.35h0s0,0,0,0h0ZM421.8,677.35h0s0,0,0,0h0ZM421.81,677.35h0s0,0,0,0h0ZM421.82,677.36h0s0,0,0,0h0ZM421.83,677.36h-.01s.01,0,.01,0h0ZM421.9,677.37h-.07s.07,0,.07,0h0ZM439.94,561.62l-10.22,48.94,5.87,1.23,3.59-17.19s0-.03,0-.05v-.04s.02-.07.03-.1v-.04c2.94-14.06,6.59-31.52,6.59-31.52l-5.87-1.23h0ZM460.38,463.73l-10.22,48.94,5.87,1.23s6.74-32.31,9.27-44.42h0c.07-.35.14-.68.21-.99v-.02s.02-.1.03-.14h0s0-.03,0-.04h0s0-.03,0-.04h0s0-.03,0-.03v-.03s0,0,0,0v-.07s.02,0,.02-.01v-.02s.01-.04.02-.06v-.02s.01-.04.01-.05v-.03s0,0,0-.01l.62-2.96-5.87-1.23h0ZM480.81,365.84l-10.22,48.94,5.87,1.23,10.22-48.94-5.87-1.23h0ZM501.25,267.95l-10.22,48.94,5.87,1.23,10.22-48.94-5.87-1.23h0ZM521.69,170.06l-10.22,48.94,5.87,1.23,10.22-48.94-5.87-1.23h0ZM530.24,85.01l-1.23,5.87,8.81,1.84-5.93,28.39,5.87,1.23s6.46-30.94,7.1-34.01h0s0-.01,0-.01h0s0-.03,0-.04h0s0-.01,0-.01v-.03s0-.01,0-.02h0s0-.01,0-.01v-.02s0,0,0,0v-.04s0,0,0,0v-.06h.01l-5.87-1.23h0c-4.09-.85-8.81-1.84-8.81-1.84h0ZM544.93,88.08v.06h-.01v-.06h.01ZM544.92,88.14v.04h0v-.04h0ZM544.91,88.18v.02h0v-.02h0ZM544.9,88.2h0s0,0,0,0h0ZM544.9,88.23v.03h0v-.03h0ZM544.89,88.26h0s0,0,0,0h0ZM544.88,88.31h0s0,0,0,0h0ZM544.88,88.32h0s0,0,0,0h0ZM432.35,64.58l-1.23,5.87,48.94,10.22,1.23-5.87-48.94-10.22h0ZM334.46,44.14l-1.23,5.87,48.94,10.22,1.23-5.87-48.94-10.22h0ZM236.58,23.71l-1.23,5.87,48.94,10.22,1.23-5.87-17.56-3.67s0,0-.01,0l-.11-.02c-14.02-2.93-31.25-6.52-31.25-6.52h0ZM138.69,3.27l-1.23,5.87,48.94,10.22,1.23-5.87-48.94-10.22h0Z"/>
      </g>
      <rect class="cls-3" x="237" y="195.35" width="107.6" height="110.14" transform="translate(-91.81 220.68) rotate(-36.29)"/>
      <rect class="cls-3" x="191" y="415.35" width="107.6" height="110.14" transform="translate(-230.94 236.12) rotate(-36.29)"/>
    </g>
  </g>
</svg>