<?xml version="1.0" encoding="UTF-8"?>
<svg id="Layer_2" data-name="Layer 2" xmlns="http://www.w3.org/2000/svg" viewBox="0 0 661.5 733.37">
  <defs>
    <style>
      .cls-1 {
        fill: red;
      }

      .cls-2 {
        fill: #333;
      }

      .cls-3 {
        fill: #ff337d;
      }
    </style>
  </defs>
  <g id="Layer_1-2" data-name="Layer 1">
    <g>
      <g>
        <rect class="cls-2" x="39.75" y="161.19" width="582" height="411" transform="translate(-147.68 488.99) rotate(-62.29)"/>
        <path class="cls-1" d="M279.94,0l-23.25,44.27,5.31,2.79,23.25-44.27-5.31-2.79h0ZM233.44,88.53l-23.25,44.27,5.31,2.79,23.25-44.27-5.31-2.79h0ZM186.94,177.06s-6.85,13.05-13.12,24.98h0s-.04.08-.06.12v.03s-.03.02-.03.03l-.09.16s0,.02-.01.02l-9.94,18.92,5.31,2.79,23.25-44.27-5.31-2.79h0ZM140.43,265.59l-23.25,44.27,5.31,2.79,23.25-44.27-5.31-2.79h0ZM93.93,354.12l-.34.65s0,0,0,0l-.04.07s0,0,0,0l-.05.09s0,0,0,0l-.03.06s0,0,0,0l-.18.34h0s-.07.14-.07.14c0,0,0,0,0,0l-.09.17s0,0,0,.01h0s0,.02,0,.02v.02s-.01,0-.01,0l-.08.15s0,0,0,.01l-.13.25s0,0,0,0l-.02.04s0,.02-.01.02l-.2.39s0,.01-.01.02h0s0,.01,0,.02l-.02.03h0s-.01.02-.01.02c0,0,0,.01,0,.02v.02s-.01,0-.02.01l-.04.08s0,.02-.01.02v.02s-.01,0-.01,0l-.12.22s0,0,0,.01l-.02.03s-.01.03-.02.04v.02s-.03.04-.04.06h0s-.02.05-.03.06v.02s-.05.08-.08.13v.02s-.03.04-.04.06h0s0,.02,0,.03v.03s-.02,0-.02,0l-.06.11h0s-.04.07-.04.07c-.02.04-.04.07-.06.11l-.03.06s0,.02-.01.03v.03s-.02,0-.02.01l-.14.26s0,.01-.01.02v.02s-.03.04-.04.05l-.02.03s-.05.09-.07.14v.02s-.02.02-.03.02h0s-.01.03-.02.04h0s-.03.06-.04.08h0s-.03.06-.04.08h0s-.01.03-.02.04l-.05.1s0,.01,0,.02v.02s-.04.05-.05.08h0c-.03.06-.06.11-.08.16v.02c-.04.05-.06.1-.09.15v.02s-.06.1-.09.15l-.02.03c-.03.05-.06.11-.08.16h0c-.03.06-.06.12-.09.18h0c-.06.12-.12.24-.18.35l-.02.04c-.03.05-.06.11-.09.16h0c-.03.06-.06.13-.1.19h0c-.06.12-.12.23-.17.34v.02s-.01,0-.02,0l-.02.04s-.02.04-.03.06v.02s-.04.05-.05.08v.02c-.25.45-.5.92-.75,1.41h0c-6.76,12.87-18.77,35.73-18.77,35.73l5.31,2.79,23.25-44.27-5.31-2.79h0ZM47.43,442.65l-23.25,44.27,5.31,2.79,23.25-44.27-5.31-2.79h0ZM2.79,527.64L0,532.95h0s0,0,0,0h0l5.31,2.79h0c.31.16.63.33.96.5h0c.12.06.23.12.35.19l.12.06s.06.03.08.04h0c.06.04.12.07.18.1h.01c.12.07.25.14.37.2h.02c.25.14.51.28.78.42h0c.47.25.95.5,1.44.76h.02s.06.04.09.06h.01s.03.02.05.03l.12.06s.01,0,.02.01h.02s.03.02.04.03h.01s.03.02.04.03h.02c.07.04.13.08.2.11h.01c.14.08.28.15.42.23l.03.02c.28.15.56.3.85.45l.05.02s0,0,0,0l.04.02s.1.05.15.08h.01c.07.04.15.08.22.12h0c.14.08.29.15.43.23l.05.03c.07.03.13.07.2.1h0c.07.04.14.08.22.11h.02c.07.05.14.09.21.12h.02s.05.04.08.05l.39.21s.07.03.1.05h0s.03.02.05.03l.09.05s0,0,0,0h.03s.03.03.05.04h.02s.07.04.1.06h.02c.07.04.14.08.21.12l.04.02s.06.03.09.05h.02s.07.04.1.06h.02s.03.03.05.04h0c.05.03.1.06.16.08l.04.02c.06.03.13.07.19.1l.11.06s.01,0,.02,0l.21.11c.05.03.11.06.16.08h.02c.07.05.15.09.22.12l.03.02c.07.04.15.08.22.12h0s.08.05.12.07h0s.06.03.1.05l.05.02c.07.04.14.07.21.11h.02s.03.03.05.04h0c.06.03.11.06.17.09h.03c.07.05.14.09.21.12l.04.02s0,0,.01,0l.04.02s.01,0,.02.01l.23.12s.02,0,.02.01h.02s.07.05.1.06l.03.02s.06.03.08.04l.05.02s.01,0,.02,0l.22.12s.02.01.04.02l.12.06s.04.02.06.03l.23.12s.01,0,.02,0h.02s.07.05.11.07l.03.02s.02.01.04.02l.41.21h0s.06.03.06.03h0s.05.03.05.03c0,0,.01,0,.02.01l.29.15s.02.01.04.02l.03.02s0,0,0,0l.05.03s.01,0,.02.01l4.33,2.28s0,0,.01,0l.66.35s.01,0,.02.01l1.94,1.02s0,0,.01,0l1.19.63s0,0,0,0l14.77,7.76,2.79-5.31-42.49-22.32h0ZM89.55,573.21l-2.79,5.31,22.41,11.77c.08.04.16.08.24.13h0c10.89,5.72,21.61,11.35,21.61,11.35l2.79-5.31-44.27-23.25h0ZM178.08,619.71l-2.79,5.31s.61.32,1.68.88h0s.07.04.11.06h0s.03.02.05.03h0s.01.01.02.01l.07.04s.01,0,.02.01h0s.04.02.06.03h0s.07.04.11.06h.01c.07.04.15.08.23.13h.02c.08.05.16.09.24.14h.01s.08.05.12.07h0s.04.02.05.03h.02s0,.01,0,.01l.09.05s.01,0,.02,0h.02s.01.02.02.02h.01s0,.01.01.01h.03s.04.03.05.04h.01s.01.01.02.02h.02s0,.01,0,.02l.03.02h0s.03.02.03.02c0,0,0,0,0,0h.02s.04.03.05.04h.03s0,.02,0,.02h.02s.01.02.02.02l40.88,21.47,2.79-5.31-44.27-23.25h0ZM266.61,666.22l-2.79,5.31,44.27,23.25,2.79-5.31-44.27-23.25h0ZM355.14,712.72l-2.79,5.31,28.64,15.05s0,0,0,0h.01s0,0,0,0l.04.02s.03.01.04.02h.01s0,.01,0,.01l.04.02s0,0,0,0h0s0,0,.01.01h0s.01,0,.02.01l.05.03s.02,0,.02.01h.03s.04.04.06.05h.01s.05.03.06.04h0s.02,0,.02.01h0s.01,0,.02,0h0s0,0,0,0h.02s0,0,0,.01h0s0,0,0,0l.04.02h0s0,0,0,0h0s0,0,0,0h0s0,0,0,0h0l2.79-5.31h0s0-.02.01-.03l.04-.07s0,0,0,0l.04-.08s0,0,0,0v-.03s.03-.04.04-.06l.02-.03s.04-.08.06-.11v-.02s.01,0,.02-.01l.02-.03s0-.01,0-.02v-.02s.02-.01.02-.02l.29-.55s0-.01,0-.02l.09-.16s0,0,0,0l.23-.43s0,0,0,0l.02-.03s0,0,0-.01l4.19-7.98-5.31-2.79-5.12,9.74-23.9-12.56h0ZM381.45,733.32h0s0,0,0,0h0ZM381.5,733.34h0s0,0,0,0h0ZM381.52,733.35h-.02s.02,0,.02,0h0ZM381.52,733.35h0s0,0,0,0h0ZM381.56,733.37l-.04-.02h0l.04.02h0ZM381.57,733.37h0s0,0,0,0h0ZM430.66,627l-23.25,44.27,5.31,2.79,23.25-44.27-5.31-2.79h0ZM477.16,538.47l-23.25,44.27,5.31,2.79s4.13-7.87,8.92-16.97l.03-.05s.03-.05.04-.07v-.02s.05-.07.06-.1l.05-.09s.01-.02.02-.04l14.14-26.92-5.31-2.79h0ZM523.66,449.94l-23.25,44.27,5.31,2.79,23.25-44.27-5.31-2.79h0ZM570.16,361.41l-23.25,44.27,5.31,2.79,23.25-44.27-5.31-2.79h0ZM616.67,272.88l-23.25,44.27,5.31,2.79s8.18-15.58,14.84-28.25l8.41-16.02-5.31-2.79h0ZM648.22,193.45l-2.79,5.31,7.97,4.19-13.49,25.67,5.31,2.79s15.38-29.28,16.24-30.91h0s0,0,0,0h0s0,0,0-.01h0s0,0,0,0h0s0-.01,0-.01h0s0,0,0,0h0s0-.01,0-.01h0s0,0,0,0h0s0,0,0,0h0s0,0,0,0h0s0,0,0,0h0s0,0,0,0h0s0,0,0,0h0s-13.28-6.98-13.28-6.98h0ZM661.5,200.42h0s0,0,0,0h0ZM661.5,200.43h0s0,0,0,0h0ZM661.5,200.44h0s0,0,0,0h0ZM661.5,200.44h0s0,0,0,0h0ZM661.49,200.45h0s0,0,0,0h0ZM661.49,200.46h0s0,0,0,0h0ZM661.48,200.47h0s0,0,0,0h0ZM559.69,146.94l-2.79,5.31,44.27,23.25,2.79-5.31-44.27-23.25h0ZM471.16,100.44l-2.79,5.31,44.27,23.25,2.79-5.31-34.28-18.01s-.03-.02-.05-.02h-.01s-.06-.04-.08-.05h-.03c-.14-.09-.28-.16-.43-.24h0c-5.48-2.88-9.38-4.93-9.38-4.93h0ZM382.63,53.94l-2.79,5.31,44.27,23.25,2.79-5.31-44.27-23.25h0ZM294.1,7.44l-2.79,5.31,44.27,23.25,2.79-5.31s-6.22-3.27-14-7.35h-.01c-.07-.05-.15-.09-.23-.13h-.02s-.04-.03-.07-.04l-.1-.05s-.03-.01-.04-.02l-.17-.09s-.02-.01-.03-.02h-.03s-.01-.02-.02-.02l-29.55-15.52h0Z"/>
      </g>
      <rect class="cls-3" x="277.35" y="311.45" width="107.6" height="110.14" transform="translate(-106.87 138.18) rotate(-20.37)"/>
    </g>
  </g>
</svg>